<svg width="16" height="18" viewBox="0 0 16 18" fill="none" xmlns="http://www.w3.org/2000/svg">
<path d="M6.42994 17.2009H14.2658C14.6748 17.2004 15.0669 17.0233 15.356 16.7085C15.6452 16.3938 15.8078 15.967 15.8081 15.522V6.99509C15.8077 6.55014 15.645 6.12358 15.3558 5.80901C15.0667 5.49443 14.6747 5.31753 14.2658 5.31714H6.4304C6.02158 5.31753 5.62961 5.49445 5.34053 5.80904C5.05145 6.12363 4.88889 6.55019 4.88852 6.99509V15.522C4.88876 15.9669 5.0512 16.3936 5.34018 16.7083C5.62916 17.0231 6.02108 17.2003 6.42994 17.2009ZM14.2658 6.56376C14.371 6.56376 14.4718 6.60919 14.5462 6.69006C14.6206 6.77094 14.6625 6.88065 14.6626 6.99509V15.522C14.6626 15.6365 14.6208 15.7464 14.5464 15.8275C14.472 15.9086 14.3711 15.9542 14.2658 15.9543H6.4304C6.3252 15.954 6.22439 15.9084 6.15008 15.8273C6.07578 15.7463 6.03405 15.6365 6.03405 15.522V6.99509C6.03405 6.88069 6.07581 6.77098 6.15014 6.69009C6.22447 6.6092 6.32528 6.56376 6.4304 6.56376H14.2658Z" fill="#8F8F8F"/>
<path d="M1.54234 11.8808H5.45866C5.61057 11.8808 5.75625 11.8151 5.86367 11.6982C5.97108 11.5813 6.03143 11.4228 6.03143 11.2575C6.03143 11.0922 5.97108 10.9336 5.86367 10.8167C5.75625 10.6998 5.61057 10.6342 5.45866 10.6342H1.54234C1.43713 10.634 1.33628 10.5885 1.26188 10.5075C1.18749 10.4266 1.14565 10.3168 1.14553 10.2023V1.67795C1.14565 1.56351 1.18751 1.4538 1.26191 1.37292C1.33632 1.29205 1.43718 1.24662 1.54234 1.24662H9.37774C9.4829 1.24662 9.58376 1.29205 9.65816 1.37292C9.73257 1.4538 9.77443 1.56351 9.77455 1.67795V5.94039C9.77455 6.1057 9.83489 6.26424 9.94231 6.38114C10.0497 6.49803 10.1954 6.5637 10.3473 6.5637C10.4992 6.5637 10.6449 6.49803 10.7523 6.38114C10.8597 6.26424 10.9201 6.1057 10.9201 5.94039V1.67795C10.9196 1.23344 10.7572 0.807251 10.4686 0.492746C10.1799 0.178241 9.78849 0.00105523 9.38003 0H1.54234C1.13348 0.000395897 0.741457 0.177291 0.452305 0.491867C0.163152 0.806444 0.00048542 1.23301 0 1.67795V10.2048C0.001091 10.6494 0.16401 11.0754 0.453084 11.3895C0.742158 11.7036 1.13383 11.8803 1.54234 11.8808Z" fill="#8F8F8F"/>
</svg>
