<svg width="13" height="17" viewBox="0 0 13 17" fill="none" xmlns="http://www.w3.org/2000/svg">
<path d="M11.7 16.12H1.3C0.585 16.12 0 15.535 0 14.82V1.3C0 0.585 0.585 0 1.3 0H6.591C6.942 0 7.753 0.292978 8 0.539978L12.5 5.03998C12.747 5.28698 13 6.058 13 6.409V14.82C13 15.535 12.415 16.12 11.7 16.12ZM1.3 1.03998C0.871 1.03998 1 0.871 1 1.3V14.2431C1 14.6721 1.571 15.04 2 15.04H10.5C10.929 15.04 12 15.249 12 14.82V6.53998C12 6.33198 11.656 5.68298 11.5 5.53998L8.5 2.53998C7.5 1.53998 7 1.03998 7 1.03998H1.3Z" fill="#8F8F8F"/>
<path d="M8.41107 12.22H7.33207L6.73407 9.87999C6.70807 9.80199 6.66907 9.61999 6.61707 9.35999C6.56507 9.09999 6.52607 8.91799 6.52607 8.83999C6.51307 8.94399 6.48707 9.12599 6.43507 9.37299C6.38307 9.61999 6.34407 9.78899 6.31807 9.89299L5.72007 12.22H4.64107L3.51007 7.76099H4.43307L5.00507 10.192C5.10907 10.647 5.17407 11.024 5.22607 11.362C5.23907 11.245 5.26507 11.063 5.30407 10.829C5.34307 10.595 5.39507 10.4 5.42107 10.27L6.07107 7.77399H6.96807L7.61807 10.27C7.64407 10.387 7.68307 10.556 7.72207 10.777C7.76107 10.998 7.80007 11.206 7.82607 11.362C7.85207 11.206 7.87807 11.011 7.93007 10.764C7.98207 10.517 8.02107 10.335 8.04707 10.192L8.61907 7.76099H9.54207L8.41107 12.22Z" fill="#8F8F8F"/>
</svg>
