<svg width="17" height="17" viewBox="0 0 17 17" fill="none" xmlns="http://www.w3.org/2000/svg">
<path d="M6.916 17.0004H15.344C15.7839 16.9999 16.2056 16.8249 16.5166 16.5138C16.8276 16.2027 17.0025 15.7809 17.0029 15.341V6.91352C17.0023 6.47376 16.8274 6.05217 16.5164 5.74126C16.2054 5.43035 15.7837 5.25552 15.344 5.25513H6.91649C6.47678 5.25552 6.05519 5.43037 5.74426 5.74129C5.43334 6.05222 5.25849 6.47381 5.2581 6.91352V15.341C5.25836 15.7808 5.43307 16.2025 5.74388 16.5136C6.0547 16.8247 6.47624 16.9997 6.916 17.0004ZM15.344 6.48722C15.4571 6.48722 15.5656 6.53211 15.6456 6.61205C15.7256 6.69198 15.7706 6.80041 15.7708 6.91352V15.341C15.7708 15.4543 15.7258 15.5629 15.6458 15.643C15.5658 15.7231 15.4572 15.7682 15.344 15.7683H6.91649C6.80334 15.768 6.69491 15.7229 6.61499 15.6428C6.53507 15.5627 6.49019 15.4542 6.49019 15.341V6.91352C6.49019 6.80046 6.5351 6.69203 6.61505 6.61208C6.69499 6.53213 6.80343 6.48722 6.91649 6.48722H15.344Z" fill="#07B49B"/>
<path d="M1.65889 11.7423H5.87116C6.03454 11.7423 6.19124 11.6774 6.30677 11.5619C6.4223 11.4463 6.4872 11.2896 6.4872 11.1263C6.4872 10.9629 6.4223 10.8062 6.30677 10.6907C6.19124 10.5751 6.03454 10.5102 5.87116 10.5102H1.65889C1.54574 10.5101 1.43726 10.4651 1.35725 10.3851C1.27723 10.3051 1.23222 10.1966 1.23209 10.0834V1.65839C1.23223 1.54528 1.27725 1.43685 1.35728 1.35692C1.4373 1.27699 1.54578 1.23209 1.65889 1.23209H10.0864C10.1995 1.23209 10.308 1.27699 10.388 1.35692C10.468 1.43685 10.513 1.54528 10.5132 1.65839V5.87115C10.5132 6.03454 10.5781 6.19123 10.6936 6.30676C10.8091 6.42229 10.9658 6.4872 11.1292 6.4872C11.2926 6.4872 11.4493 6.42229 11.5648 6.30676C11.6804 6.19123 11.7453 6.03454 11.7453 5.87115V1.65839C11.7447 1.21906 11.5701 0.797843 11.2597 0.487003C10.9492 0.176164 10.5282 0.00104293 10.0888 0H1.65889C1.21913 0.000391283 0.79749 0.175224 0.486488 0.486134C0.175486 0.797044 0.000526428 1.21863 4.76837e-06 1.65839V10.0859C0.00117779 10.5253 0.176409 10.9463 0.487327 11.2567C0.798244 11.5672 1.21951 11.7418 1.65889 11.7423Z" fill="#07B49B"/>
</svg>
