<svg width="17" height="17" viewBox="0 0 17 17" fill="none" xmlns="http://www.w3.org/2000/svg">
<path d="M8.32008 16.625C6.09945 16.625 4.01242 15.7605 2.44255 14.19C-0.123642 11.6244 -0.733423 7.73359 0.926108 4.50953C1.07633 4.218 1.43376 4.10341 1.72589 4.25303C2.01801 4.40266 2.13261 4.76069 1.98239 5.05281C0.559765 7.81612 1.08226 11.1506 3.28211 13.3505C4.62755 14.6965 6.41651 15.4375 8.32008 15.4375C10.223 15.4375 12.0126 14.6965 13.358 13.3505C14.7035 12.0044 15.4451 10.2155 15.4451 8.3125C15.4451 6.40894 14.7041 4.61997 13.358 3.27453C12.012 1.92909 10.2236 1.1875 8.32008 1.1875C6.41651 1.1875 4.62755 1.92909 3.28211 3.27453C3.04995 3.50669 2.6747 3.50669 2.44255 3.27453C2.21039 3.04237 2.21039 2.66712 2.44255 2.43497C4.01242 0.865094 6.09945 0 8.32008 0C10.5407 0 12.6283 0.865094 14.1976 2.43497C15.7681 4.00484 16.6326 6.09188 16.6326 8.3125C16.6326 10.5325 15.7681 12.6202 14.1976 14.19C12.6283 15.7605 10.5407 16.625 8.32008 16.625Z" fill="black" fill-opacity="0.6"/>
<path d="M11.2882 11.2812C11.1582 11.2812 11.0276 11.2391 10.9177 11.1512L7.94897 8.77622C7.80826 8.66341 7.72632 8.493 7.72632 8.3125V3.5625C7.72632 3.23475 7.99232 2.96875 8.32007 2.96875C8.64782 2.96875 8.91382 3.23475 8.91382 3.5625V8.0275L11.6599 10.2238C11.9158 10.4292 11.9574 10.8027 11.7525 11.0586C11.635 11.2047 11.4628 11.2812 11.2882 11.2812Z" fill="black" fill-opacity="0.6"/>
</svg>
